<?xml version="1.0" encoding="utf-8"?>
<!-- Generator: Adobe Illustrator 25.2.1, SVG Export Plug-In . SVG Version: 6.00 Build 0)  -->
<svg version="1.1" id="Laag_1" xmlns="http://www.w3.org/2000/svg" xmlns:xlink="http://www.w3.org/1999/xlink" x="0px" y="0px"
	 viewBox="0 0 841.9 1190.6" style="enable-background:new 0 0 841.9 1190.6;" xml:space="preserve">
<style type="text/css">
	.st0{fill:#802122;}
	.st1{fill:#FFF6E6;}
	.st2{fill:#FACD1C;}
</style>
<g>
	<circle class="st0" cx="419.4" cy="508.8" r="419.4"/>
	<g>
		<path class="st1" d="M337.3,698.9c107.2-22.2,220.9,23.6,220.9,23.6l-40.5-129.5l-56.2-18.3l-19.6-64.1l96.7,37.9l17,83.7
			l49.7,22.2l-20.9-100.7c0,0,6.2-90-45.2-130.6l4.7-35.4l-187-30.1l-79.7,87.6l-11.8,126.8l23.6,7.3l22.2,45l-17,81L337.3,698.9z"
			/>
		<path class="st1" d="M614.7,359.9c0,0-117.4-106.2-276.7-47S232.9,570.2,232.9,570.2l12.3,39.8l43.9-30.6
			c0,0-14.3-112.3,55.1-163.3s167.4-21.4,195,7.1L614.7,359.9z"/>
	</g>
	<g>
		<path class="st2" d="M459.6,823.6c34.5-10.2,67.1-2,99.7,7.4c0.1,0.8,0.2,1.5,0.3,2.3c-3.2,1-6.4,1.9-9.6,2.9
			c-15.8,5.1-31.4,11.1-47.4,15.2c-23.1,5.9-45.5,4.2-65.4-10.7c-4.7-3.5-8.4-8.3-12.4-12.4c41.9-46.2,50.6-52.2,92.1-63.3
			c-2.1,3.9-3.5,7-5.5,9.7c-10.4,14.6-22.6,27.1-38.3,36.1c-5.2,3-9.8,6.9-14.6,10.4C458.9,822,459.3,822.8,459.6,823.6z"/>
		<path class="st2" d="M321.8,764.3c24.1,10.1,49.8,13.5,66.1,35.8c7.2,9.8,16.1,18.3,24.8,28c-8,13.3-21.1,20.3-36.4,24.1
			c-15.3,3.8-30.6,2.4-45.5-1.9c-17.4-5.1-34.4-11.4-53.2-17.7c16.9-8,33.8-11.1,50.8-12.2c16.7-1.1,33.7,0.3,51.4,0.6
			c-4.5-3.2-8.9-7-13.9-9.9c-15.9-9.1-28.5-21.6-39-36.5c-1.3-1.9-2.5-3.9-3.7-6C322.8,767.9,322.6,766.9,321.8,764.3z"/>
		<path class="st2" d="M527.6,809.4c17.7-11.8,82.9-17,105-8.9c-16.1,6.6-31.8,14.2-48.4,19.2c-7.3,2.2-16.4-0.3-24.5-1.9
			C549.1,815.7,538.7,812.4,527.6,809.4z"/>
		<path class="st2" d="M204.9,797.8c37-3.6,71.8-2.1,105.4,11C244.8,827.5,254.4,823.5,204.9,797.8z"/>
		<path class="st2" d="M50.4,466.2C70.8,495.5,80.9,526.1,80,560c-0.8,0.5-1.5,1-2.3,1.4C69.5,550.4,60,540,53.5,528
			c-3.6-6.8-2.7-16.2-3-24.5C50.1,491.8,50.4,480.1,50.4,466.2z"/>
		<path class="st2" d="M758.4,562.3c-0.9-36.3,9.3-66.8,29.9-94.3c0,9.6,0.3,19.3-0.1,28.9c-0.3,9.1-0.5,18.3-2.2,27.1
			c-1.1,5.6-4.2,11.2-7.6,15.8C772.8,547.2,766.1,553.8,758.4,562.3z"/>
		<path class="st2" d="M330.2,802c-23.8-2.1-69.3-41.7-75.1-65C290.8,745.8,311.6,772,330.2,802z"/>
		<path class="st2" d="M508.5,801.8c18.1-29.6,39-55.7,74.6-64.9C582.4,755.9,529.7,802.1,508.5,801.8z"/>
		<path class="st2" d="M730,625.8c12.1-29.1,29-54.8,54.6-76.2c-0.5,21.8-4.2,41.2-19.3,55.1c-9.8,9.1-22.4,15.2-33.8,22.7
			C731,626.8,730.5,626.3,730,625.8z"/>
		<path class="st2" d="M106.5,627.8c-8-5.7-15.5-12.3-24-17c-23.8-13.2-26.7-35.9-28-59.6c24.8,20.1,42,45.6,53.9,74.8
			C107.7,626.5,107.1,627.1,106.5,627.8z"/>
		<path class="st2" d="M201,746.1c-37-4.8-69.5-13.1-86.8-48.6C146.3,706.5,175.6,720.7,201,746.1z"/>
		<path class="st2" d="M724.2,697.3c-17.4,35.7-50,44-86.6,48.7C662.7,720.6,692.2,706.7,724.2,697.3z"/>
		<path class="st2" d="M76.3,484c-21.3-22.6-23.6-65-4.8-89.4C84.8,423.9,82.7,453.7,76.3,484z"/>
		<path class="st2" d="M762.1,483.9c-6.3-30.1-8.5-59.9,4.6-88.9C785.7,413.4,783.3,462.3,762.1,483.9z"/>
		<path class="st2" d="M586.5,782.7c29.5-20.2,63.7-24.9,97.9-31.8C659.3,786.2,621.7,780.8,586.5,782.7z"/>
		<path class="st2" d="M252,782.7c-35.2-1.8-72.8,3.8-97.9-31.8C188.2,757.8,222.4,762.6,252,782.7z"/>
		<path class="st2" d="M143.4,691c-25.2,0.1-62.3-34.3-70.6-65.6C101.8,642.5,125,663.5,143.4,691z"/>
		<path class="st2" d="M694.7,691.5c18.7-28.1,42-48.9,70.1-65.7C761.4,652.7,723.9,688.5,694.7,691.5z"/>
		<path class="st2" d="M86.2,408.6c-13.6-30-4.6-64.8,15.3-86C107.1,353.2,99.3,380.5,86.2,408.6z"/>
		<path class="st2" d="M752.1,408.6c-12.9-28.2-20.9-55.5-15.2-85.9C756.9,338.4,765,383.2,752.1,408.6z"/>
		<path class="st2" d="M197.7,696.9c25.6,18.6,46.8,40.1,56.6,70.3C232.4,765.2,201.7,727.5,197.7,696.9z"/>
		<path class="st2" d="M584,767.8c9.9-30.8,31.3-52.2,56.2-70.4C636.6,725.8,610.9,761.3,584,767.8z"/>
		<path class="st2" d="M96.2,447.8c-8-23.5,10.9-60.1,38.7-74.6C129.5,402.3,111.6,423.9,96.2,447.8z"/>
		<path class="st2" d="M703.4,373c28.4,15.4,47.3,52.2,38.9,74.7C727,424.2,709.1,402.4,703.4,373z"/>
		<path class="st2" d="M488.4,163.6c32.7-2.9,62.2,8.6,71.9,28C534.9,194.2,495.3,177.9,488.4,163.6z"/>
		<path class="st2" d="M277.1,191.4c18.9-25,44.8-29.3,73.1-28.1C342.5,178.4,302.9,194.3,277.1,191.4z"/>
		<path class="st2" d="M146.3,258.7c1.5,18.5-14,55.6-30.5,72.9C108.8,304.9,120.5,276.8,146.3,258.7z"/>
		<path class="st2" d="M143.1,662.8c-17.1-16.4-30.7-63.3-20.3-82.5C138.1,603.7,146.6,638.5,143.1,662.8z"/>
		<path class="st2" d="M716.4,578.6c7.6,33-3.2,59.5-20.2,85.4C690.8,645.8,699.6,608.2,716.4,578.6z"/>
		<path class="st2" d="M691.2,257.4c29.1,25,37.2,44.6,31.4,75.5C706.5,309.7,694.4,286.2,691.2,257.4z"/>
		<path class="st2" d="M681.2,272.2c-22.6-17.6-41.4-35.8-49.7-63.2C653.3,215,678.1,242.3,681.2,272.2z"/>
		<path class="st2" d="M157.6,270.5c2.5-26.8,24.5-52.8,48-61.6C205,228.3,176.2,260.7,157.6,270.5z"/>
		<path class="st2" d="M728.7,510.2c15.1,10.8,21.6,60.3,5.3,79.6C726.1,563.8,723,537.6,728.7,510.2z"/>
		<path class="st2" d="M104.4,590.1c-14.8-21-11.7-65.9,5.3-79.7C115.5,537.3,112.4,563.5,104.4,590.1z"/>
		<path class="st2" d="M194.6,721.1c-20.8-8.3-42.5-49.3-37.7-71.4C176.6,670,188.2,693.8,194.6,721.1z"/>
		<path class="st2" d="M643.9,721.2c6-27.5,18.1-50.9,37-71.1C688.4,667.6,665.8,711.6,643.9,721.2z"/>
		<path class="st2" d="M121.4,438.1c-0.1,24.2-12.1,51.4-31.2,71C85.2,483.1,98.9,454.5,121.4,438.1z"/>
		<path class="st2" d="M716.6,437c23,19.5,34.9,42.4,32.6,72C733.3,498.4,718.9,466.7,716.6,437z"/>
		<path class="st2" d="M668.9,309.4c26.4,6.9,53.9,35.8,54.6,56.9C701.5,351.2,680.8,335.5,668.9,309.4z"/>
		<path class="st2" d="M113.3,366.6c9.1-29.7,28.3-46.9,54.8-57.6C165.5,324.9,140,352,113.3,366.6z"/>
		<path class="st2" d="M565.2,174c27,7.9,47.4,20.2,55,47.8C593.9,215.7,579.5,196.4,565.2,174z"/>
		<path class="st2" d="M273.3,173.8c-14.4,22.6-28.8,41.9-55.1,48C225.8,194.1,246.4,182,273.3,173.8z"/>
		<path class="st2" d="M691.7,304.7c-24.3-4.7-43-17-59.6-33.4C647,264.1,682.1,283.4,691.7,304.7z"/>
		<path class="st2" d="M147.3,303.5c9.5-20,40.7-37.4,58.5-33.1C195.8,285.4,164.1,303.5,147.3,303.5z"/>
		<path class="st2" d="M302.5,205.8c-16.4,17.3-37.3,20.8-61.7,19.6C258.5,206.2,279.9,204.2,302.5,205.8z"/>
		<path class="st2" d="M535.4,205c23-1.3,44.1,1.5,61.2,18.9C579,230.2,545.3,219.8,535.4,205z"/>
		<path class="st2" d="M647.5,256.3c-21.7-0.5-40.6-5.4-55.8-21.4C611,230.1,638.5,240.4,647.5,256.3z"/>
		<path class="st2" d="M191.7,255.3c13.8-17.9,32.8-22.3,56.2-21.6C231.7,251,212.7,255.7,191.7,255.3z"/>
	</g>
</g>
</svg>
